<svg xmlns="http://www.w3.org/2000/svg" version="1.1" xmlns:xlink="http://www.w3.org/1999/xlink" xmlns:svgjs="http://svgjs.com/svgjs" width="512" height="512" x="0" y="0" viewBox="0 0 370 370" style="enable-background:new 0 0 512 512" xml:space="preserve" class=""><g><path d="M155.305 168.422a4.58 4.58 0 0 0 3.299-1.402l59.389-61.623a4.59 4.59 0 0 0 1.28-3.177V77.948a4.578 4.578 0 0 0-4.578-4.579h-59.389a4.579 4.579 0 0 0-4.579 4.579v85.896a4.58 4.58 0 0 0 4.578 4.578zM288.756 122.708l-56.895 59.033a4.588 4.588 0 0 0-1.28 3.179v107.135a4.58 4.58 0 0 0 4.579 4.578h56.894a4.58 4.58 0 0 0 4.579-4.578V125.886a4.58 4.58 0 0 0-7.877-3.178zM77.946 248.694c1.22 0 2.417-.487 3.298-1.401l56.893-59.033a4.577 4.577 0 0 0 1.281-3.178V77.946a4.579 4.579 0 0 0-4.579-4.579H77.946a4.579 4.579 0 0 0-4.579 4.579v166.168a4.58 4.58 0 0 0 4.579 4.58zM4.579 296.633h52.898a4.58 4.58 0 0 0 4.58-4.578V77.946a4.58 4.58 0 0 0-4.58-4.579H4.579A4.58 4.58 0 0 0 0 77.946v214.107a4.58 4.58 0 0 0 4.579 4.58zM73.367 292.055a4.58 4.58 0 0 0 4.579 4.578h25.54a4.583 4.583 0 0 0 3.297-1.402L295.35 99.589a4.578 4.578 0 0 0 1.283-3.177V77.946a4.579 4.579 0 0 0-4.579-4.579h-25.541a4.586 4.586 0 0 0-3.298 1.401L74.65 270.352a4.578 4.578 0 0 0-1.283 3.178v18.525zM365.421 307.942H4.579A4.58 4.58 0 0 0 0 312.522v52.898A4.58 4.58 0 0 0 4.579 370h360.842a4.58 4.58 0 0 0 4.579-4.579v-52.898a4.58 4.58 0 0 0-4.579-4.581zm-333.56 31.012c0-6.007 4.889-10.896 10.897-10.896 6.007 0 10.895 4.89 10.895 10.896s-4.888 10.894-10.895 10.894c-6.008-.001-10.897-4.888-10.897-10.894zm284.486 0c0-6.007 4.888-10.896 10.896-10.896s10.896 4.89 10.896 10.896-4.888 10.894-10.896 10.894-10.896-4.888-10.896-10.894zM235.16 85.562a4.582 4.582 0 0 0 3.298-1.4l2.926-3.037a4.58 4.58 0 0 0-3.297-7.757h-2.927a4.579 4.579 0 0 0-4.579 4.579v3.036a4.578 4.578 0 0 0 4.579 4.579zM211.396 202.979l-59.39 61.623a4.586 4.586 0 0 0-1.281 3.18v24.273a4.58 4.58 0 0 0 4.579 4.578h59.388a4.579 4.579 0 0 0 4.58-4.578v-85.896a4.576 4.576 0 0 0-2.865-4.246 4.577 4.577 0 0 0-5.011 1.066zM365.421 0H4.579A4.58 4.58 0 0 0 0 4.58v52.898a4.58 4.58 0 0 0 4.579 4.58h360.842a4.58 4.58 0 0 0 4.579-4.58V4.58A4.58 4.58 0 0 0 365.421 0zM31.861 31.046c0-6.007 4.889-10.894 10.897-10.894 6.007 0 10.895 4.887 10.895 10.894 0 6.008-4.888 10.895-10.895 10.895-6.008-.001-10.897-4.886-10.897-10.895zm284.486 0c0-6.007 4.888-10.894 10.896-10.894s10.896 4.887 10.896 10.894c0 6.008-4.888 10.895-10.896 10.895s-10.896-4.886-10.896-10.895zM365.421 73.368h-52.897a4.58 4.58 0 0 0-4.58 4.579v214.107a4.58 4.58 0 0 0 4.58 4.579h52.897a4.58 4.58 0 0 0 4.579-4.579V77.946a4.578 4.578 0 0 0-4.579-4.578zM131.542 285.839l-2.926 3.036a4.579 4.579 0 0 0 3.296 7.758h2.927a4.58 4.58 0 0 0 4.579-4.578v-3.037a4.58 4.58 0 0 0-7.876-3.179z" fill="red" data-original="#000000" class=""></path></g></svg>